<svg xmlns="http://www.w3.org/2000/svg" width="312" height="273.432" viewBox="0 0 312 273.432">
  <g id="Logo" transform="translate(-1363 -364)">
    <path id="Union_2" data-name="Union 2" d="M136,125V40H0V0H312V40H176v85l-20,23ZM136,125Z" transform="translate(1363 364)" fill="#db1631"/>
    <path id="Subtraction_1" data-name="Subtraction 1" d="M50.03,71.432h-.037L7,70.681a2,2,0,0,1-1.965-2.034L6.124,6.228,29.5,30,53.137,5.963l-1.108,63.5A2.01,2.01,0,0,1,50.03,71.432Z" transform="translate(1489.915 566)" fill="#0253bc"/>
    <path id="Path_1" data-name="Path 1" d="M776.341,412.511v142.2l-39.073-32.668V363.83h39.073L892.92,459.271l114.017-95.441h39.714V522.044l-39.714,32.668v-142.2L892.92,507.952Z" transform="translate(626 66.67)" fill="#0253bc"/>
  </g>
</svg>
